<svg width="124" height="107" viewBox="0 0 124 107" fill="none" xmlns="http://www.w3.org/2000/svg">
<rect width="124" height="107" fill="#1E1E1E"/>
<path d="M123.48 60.6674C123.48 75.5493 111.413 87.6158 96.4645 87.6158H26.9484C12.0664 87.6158 0 75.5493 0 60.6674C0 46.1877 11.3291 34.3894 25.6077 33.719C26.8814 14.8819 42.5677 0 61.74 0C80.9122 0 96.5315 14.8819 97.8723 33.719C112.084 34.3894 123.48 46.1877 123.48 60.6674Z" fill="url(#paint0_radial_1_344)"/>
<path style="mix-blend-mode:overlay" d="M61.74 37.0708C51.5505 28.8254 47.5954 16.2897 52.8912 9.04983C58.12 1.80996 70.6557 2.6144 80.7781 10.8598C90.9676 19.1052 94.9227 31.6409 89.6269 38.8808C84.3981 46.1206 71.8624 45.3162 61.74 37.0708Z" fill="url(#paint1_radial_1_344)"/>
<path style="mix-blend-mode:overlay" opacity="0.4" d="M98.0063 61.4048C90.0291 54.9693 86.9454 45.1151 91.1017 39.417C95.1908 33.719 105.045 34.3223 113.022 40.8248C121 47.2602 124.15 57.1815 119.994 62.8125C115.838 68.5106 105.984 67.9072 98.0063 61.4048V61.4048Z" fill="url(#paint2_radial_1_344)"/>
<path style="mix-blend-mode:overlay" opacity="0.2" d="M25.2725 85.7387C22.7251 89.4257 15.8875 85.0013 9.98834 75.8174C4.08919 66.6335 1.40775 56.176 3.95511 52.422C6.56951 48.735 13.4072 53.1593 19.2393 62.3432C25.1384 71.5271 27.8869 81.9847 25.2725 85.7387Z" fill="url(#paint3_radial_1_344)"/>
<path d="M31.5739 104.241C30.0991 106.855 26.6802 107.727 24.0659 106.252C21.4515 104.71 20.513 101.358 22.0548 98.6767C23.5966 96.0623 32.9816 90.7665 32.9816 90.7665C32.9816 90.7665 33.1157 101.559 31.5739 104.241V104.241Z" fill="url(#paint4_radial_1_344)"/>
<path style="mix-blend-mode:overlay" d="M22.1888 103.302C21.3844 101.09 21.8537 98.7437 23.3955 98.0734C24.8703 97.403 26.7473 98.6767 27.6187 100.889C28.4902 103.101 27.9539 105.447 26.4791 106.118C24.9373 106.788 23.0603 105.514 22.1888 103.302V103.302Z" fill="url(#paint5_radial_1_344)"/>
<path d="M54.6342 104.241C53.0924 106.855 49.7406 107.727 47.1262 106.252C44.5118 104.71 43.5733 101.358 45.1151 98.6767C46.5899 96.0623 56.0419 90.7665 56.0419 90.7665C56.0419 90.7665 56.176 101.559 54.6342 104.241V104.241Z" fill="url(#paint6_radial_1_344)"/>
<path style="mix-blend-mode:overlay" d="M45.2492 103.302C44.3777 101.09 44.914 98.7437 46.3888 98.0734C47.9306 97.403 49.8076 98.6767 50.6791 100.889C51.5505 103.101 51.0142 105.447 49.5395 106.118C47.9976 106.788 46.1206 105.514 45.2492 103.302Z" fill="url(#paint7_radial_1_344)"/>
<path d="M77.6945 104.241C76.1527 106.855 72.8009 107.727 70.1865 106.252C67.505 104.71 66.6336 101.358 68.1754 98.6767C69.6502 96.0623 79.1022 90.7665 79.1022 90.7665C79.1022 90.7665 79.2363 101.559 77.6945 104.241V104.241Z" fill="url(#paint8_radial_1_344)"/>
<path style="mix-blend-mode:overlay" d="M68.3095 103.302C67.438 101.09 67.9743 98.7437 69.4491 98.0734C70.9909 97.403 72.8679 98.6767 73.7394 100.889C74.6108 103.101 74.0745 105.447 72.5998 106.118C71.0579 106.788 69.1809 105.514 68.3095 103.302Z" fill="url(#paint9_radial_1_344)"/>
<path d="M100.755 104.241C99.213 106.855 95.8612 107.727 93.2468 106.252C90.5654 104.71 89.6939 101.358 91.1687 98.6767C92.7105 96.0623 102.163 90.7665 102.163 90.7665C102.163 90.7665 102.297 101.559 100.755 104.241Z" fill="url(#paint10_radial_1_344)"/>
<path style="mix-blend-mode:overlay" d="M91.3698 103.302C90.4983 101.09 91.0346 98.7437 92.5094 98.0734C94.0512 97.403 95.9282 98.6767 96.7997 100.889C97.6041 103.101 97.1349 105.447 95.5931 106.118C94.1183 106.788 92.2413 105.514 91.3698 103.302V103.302Z" fill="url(#paint11_radial_1_344)"/>
<defs>
<radialGradient id="paint0_radial_1_344" cx="0" cy="0" r="1" gradientUnits="userSpaceOnUse" gradientTransform="translate(77.2923 18.4348) scale(94.1853 94.1853)">
<stop stop-color="#FEFEFE"/>
<stop offset="0.2" stop-color="#D6EFFB"/>
<stop offset="1" stop-color="#87BBE4"/>
</radialGradient>
<radialGradient id="paint1_radial_1_344" cx="0" cy="0" r="1" gradientUnits="userSpaceOnUse" gradientTransform="translate(71.259 23.9318) scale(14.5468 14.5468)">
<stop stop-color="#FEFEFE"/>
<stop offset="1" stop-color="#FEFEFE" stop-opacity="0"/>
</radialGradient>
<radialGradient id="paint2_radial_1_344" cx="0" cy="0" r="1" gradientUnits="userSpaceOnUse" gradientTransform="translate(105.514 51.1483) scale(11.3961 11.3961)">
<stop stop-color="#FEFEFE"/>
<stop offset="1" stop-color="#FEFEFE" stop-opacity="0"/>
</radialGradient>
<radialGradient id="paint3_radial_1_344" cx="0" cy="0" r="1" gradientUnits="userSpaceOnUse" gradientTransform="translate(14.6138 69.0468) scale(5.76508 5.76508)">
<stop stop-color="#FEFEFE"/>
<stop offset="1" stop-color="#FEFEFE" stop-opacity="0"/>
</radialGradient>
<radialGradient id="paint4_radial_1_344" cx="0" cy="0" r="1" gradientUnits="userSpaceOnUse" gradientTransform="translate(24.7362 102.431) scale(12.2676 12.2676)">
<stop stop-color="#D0EDFA"/>
<stop offset="0.2" stop-color="#D6EFFB"/>
<stop offset="1" stop-color="#87BBE4"/>
</radialGradient>
<radialGradient id="paint5_radial_1_344" cx="0" cy="0" r="1" gradientUnits="userSpaceOnUse" gradientTransform="translate(24.9373 102.096) scale(2.6144 2.6144)">
<stop stop-color="#FEFEFE"/>
<stop offset="1" stop-color="#FEFEFE" stop-opacity="0"/>
</radialGradient>
<radialGradient id="paint6_radial_1_344" cx="0" cy="0" r="1" gradientUnits="userSpaceOnUse" gradientTransform="translate(47.7965 102.431) scale(12.2676 12.2676)">
<stop stop-color="#D0EDFA"/>
<stop offset="0.2" stop-color="#D6EFFB"/>
<stop offset="1" stop-color="#87BBE4"/>
</radialGradient>
<radialGradient id="paint7_radial_1_344" cx="0" cy="0" r="1" gradientUnits="userSpaceOnUse" gradientTransform="translate(47.9976 102.096) scale(2.61439 2.6144)">
<stop stop-color="#FEFEFE"/>
<stop offset="1" stop-color="#FEFEFE" stop-opacity="0"/>
</radialGradient>
<radialGradient id="paint8_radial_1_344" cx="0" cy="0" r="1" gradientUnits="userSpaceOnUse" gradientTransform="translate(70.8568 102.431) scale(12.2676 12.2676)">
<stop stop-color="#D0EDFA"/>
<stop offset="0.2" stop-color="#D6EFFB"/>
<stop offset="1" stop-color="#87BBE4"/>
</radialGradient>
<radialGradient id="paint9_radial_1_344" cx="0" cy="0" r="1" gradientUnits="userSpaceOnUse" gradientTransform="translate(70.9909 102.096) scale(2.6144)">
<stop stop-color="#FEFEFE"/>
<stop offset="1" stop-color="#FEFEFE" stop-opacity="0"/>
</radialGradient>
<radialGradient id="paint10_radial_1_344" cx="0" cy="0" r="1" gradientUnits="userSpaceOnUse" gradientTransform="translate(93.9171 102.431) scale(12.2675 12.2676)">
<stop stop-color="#D0EDFA"/>
<stop offset="0.2" stop-color="#D6EFFB"/>
<stop offset="1" stop-color="#87BBE4"/>
</radialGradient>
<radialGradient id="paint11_radial_1_344" cx="0" cy="0" r="1" gradientUnits="userSpaceOnUse" gradientTransform="translate(94.0512 102.096) scale(2.6144 2.6144)">
<stop stop-color="#FEFEFE"/>
<stop offset="1" stop-color="#FEFEFE" stop-opacity="0"/>
</radialGradient>
</defs>
</svg>
