<svg width="109" height="94" viewBox="0 0 109 94" fill="none" xmlns="http://www.w3.org/2000/svg">
<rect width="109" height="94" fill="#1E1E1E"/>
<path d="M86.261 62.505L77.7514 63.0622L76.1812 71.4199L67.9755 69.0392L63.6194 76.3331L56.7813 71.3186L50.1965 76.6877L45.4352 69.5964L37.3815 72.3823L35.406 64.1259L26.8458 64.0246L27.8082 55.5657L19.8557 52.5265L23.604 44.878L17.1712 39.3062L23.3001 33.4306L19.1466 25.9847L26.9471 22.591L25.5795 14.1827L34.0891 13.6255L35.7099 5.26783L43.865 7.6485L48.2211 0.303902L55.1098 5.36914L61.6946 0L66.4053 7.04066L74.459 4.25478L76.4851 12.5111L84.9947 12.6631L84.083 21.122L92.0354 24.1105L88.2365 31.759L94.72 37.3308L88.5404 43.2065L92.6939 50.6524L84.8934 54.0968L86.261 62.505Z" fill="url(#paint0_linear_1_344)"/>
<path d="M55.9202 9.62396C71.7744 9.62396 84.6402 22.4896 84.6402 38.3438C84.6402 54.198 71.7744 67.0638 55.9202 67.0638C40.066 67.0638 27.2003 54.198 27.2003 38.3438C27.2003 22.4896 40.066 9.62396 55.9202 9.62396V9.62396Z" fill="url(#paint1_radial_1_344)"/>
<path style="mix-blend-mode:overlay" d="M60.327 35.3553C52.9824 29.429 50.1459 20.4129 53.9448 15.1957C57.7437 9.9785 66.7092 10.5863 74.0538 16.5127C81.3477 22.439 84.1843 31.4551 80.436 36.6723C76.6371 41.8895 67.6209 41.2817 60.327 35.3553Z" fill="url(#paint2_radial_1_344)"/>
<path style="mix-blend-mode:overlay" opacity="0.4" d="M30.5434 44.6754C31.5058 41.4843 36.4697 42.8013 41.535 47.6132C46.6509 52.4252 50.0446 58.8581 49.0822 62.0492C48.0691 65.2403 43.1558 63.9233 38.04 59.1113C32.9241 54.2993 29.581 47.8665 30.5434 44.6754V44.6754Z" fill="url(#paint3_radial_1_344)"/>
<path d="M49.2341 65.9494C49.2341 71.8757 44.4222 76.6877 38.4958 76.6877H10.789C4.86262 76.6877 0 71.8757 0 65.9494C0 60.175 4.55871 55.4644 10.2318 55.2111C10.7383 47.6639 16.9686 41.7375 24.6171 41.7375C32.2656 41.7375 38.4958 47.6639 39.0023 55.2111C44.6754 55.4644 49.2341 60.175 49.2341 65.9494V65.9494Z" fill="url(#paint4_radial_1_344)"/>
<path d="M49.2341 65.9494C49.2341 71.8757 44.4222 76.6877 38.4958 76.6877H10.789C4.86262 76.6877 0 71.8757 0 65.9494C0 60.175 4.55871 55.4644 10.2318 55.2111C10.7383 47.6639 16.9686 41.7375 24.6171 41.7375C32.2656 41.7375 38.4958 47.6639 39.0023 55.2111C44.6754 55.4644 49.2341 60.175 49.2341 65.9494V65.9494Z" fill="url(#paint5_radial_1_344)"/>
<path style="mix-blend-mode:overlay" d="M24.6171 56.528C20.5649 53.2356 18.9947 48.2717 21.0714 45.3845C23.1988 42.4973 28.1627 42.8013 32.2149 46.0937C36.2671 49.3861 37.8374 54.35 35.7606 57.2372C33.6332 60.1244 28.6693 59.8205 24.6171 56.528Z" fill="url(#paint6_radial_1_344)"/>
<path style="mix-blend-mode:overlay" opacity="0.4" d="M39.1036 66.2533C35.9125 63.6701 34.6462 59.7192 36.3178 57.4398C37.9893 55.2111 41.8895 55.4644 45.0806 58.0476C48.2211 60.5803 49.4874 64.5311 47.8159 66.8105C46.195 69.0392 42.2441 68.786 39.1036 66.2533Z" fill="url(#paint7_radial_1_344)"/>
<path style="mix-blend-mode:overlay" opacity="0.2" d="M10.1305 75.9279C9.11744 77.3968 6.3822 75.624 4.00154 71.977C1.67153 68.3301 0.607825 64.1259 1.62087 62.657C2.63392 61.1881 5.36915 62.9103 7.69916 66.6079C10.0798 70.2549 11.1435 74.4083 10.1305 75.9279Z" fill="url(#paint8_radial_1_344)"/>
<path d="M108.194 33.228C108.194 37.8373 104.445 41.5856 99.8865 41.5856H78.4099C73.8006 41.5856 70.1029 37.8373 70.1029 33.228C70.1029 28.7706 73.5979 25.1742 78.0047 24.921C78.4099 19.1466 83.2219 14.5372 89.1482 14.5372C95.0745 14.5372 99.8865 19.1466 100.292 24.921C104.698 25.1742 108.194 28.7706 108.194 33.228V33.228Z" fill="url(#paint9_radial_1_344)"/>
<path d="M108.194 33.228C108.194 37.8373 104.445 41.5856 99.8865 41.5856H78.4099C73.8006 41.5856 70.1029 37.8373 70.1029 33.228C70.1029 28.7706 73.5979 25.1742 78.0047 24.921C78.4099 19.1466 83.2219 14.5372 89.1482 14.5372C95.0745 14.5372 99.8865 19.1466 100.292 24.921C104.698 25.1742 108.194 28.7706 108.194 33.228V33.228Z" fill="url(#paint10_radial_1_344)"/>
<path style="mix-blend-mode:overlay" d="M89.1482 25.9847C86.0077 23.4521 84.7921 19.5518 86.413 17.3231C88.0339 15.0944 91.8834 15.3477 95.0239 17.8803C98.1643 20.4129 99.38 24.3131 97.7591 26.5418C96.1382 28.7705 92.2886 28.5173 89.1482 25.9847Z" fill="url(#paint11_radial_1_344)"/>
<path style="mix-blend-mode:overlay" opacity="0.4" d="M100.342 33.4812C97.8604 31.5058 96.898 28.4666 98.215 26.6938C99.4813 24.921 102.52 25.1236 104.952 27.1497C107.434 29.1251 108.396 32.1643 107.13 33.9371C105.813 35.6593 102.824 35.4567 100.342 33.4812V33.4812Z" fill="url(#paint12_radial_1_344)"/>
<path style="mix-blend-mode:overlay" opacity="0.2" d="M77.9034 40.9778C77.1436 42.1428 75.0162 40.7752 73.1927 37.9387C71.3692 35.1021 70.5588 31.8604 71.3186 30.6954C72.129 29.581 74.2564 30.9486 76.0293 33.7852C77.8527 36.6217 78.7138 39.8128 77.9034 40.9778V40.9778Z" fill="url(#paint13_radial_1_344)"/>
<path d="M31.3538 91.5289C30.1888 93.5043 27.6562 94.2134 25.6301 93.0484C23.6547 91.8834 22.9962 89.3508 24.1105 87.3754C25.2756 85.3493 32.3669 81.3984 32.3669 81.3984C32.3669 81.3984 32.4682 89.5534 31.3538 91.5289Z" fill="url(#paint14_radial_1_344)"/>
<path style="mix-blend-mode:overlay" d="M24.2625 90.8197C23.604 89.1482 24.0092 87.3753 25.1236 86.8688C26.2379 86.3623 27.7069 87.3247 28.3653 88.9962C28.9732 90.7184 28.6186 92.4912 27.4536 92.9978C26.3392 93.5043 24.8703 92.5419 24.2625 90.8197V90.8197Z" fill="url(#paint15_radial_1_344)"/>
<path d="M48.7783 91.5289C47.6133 93.5043 45.0806 94.2134 43.0545 93.0484C41.0791 91.8834 40.4206 89.3508 41.535 87.3754C42.7 85.3493 49.7913 81.3984 49.7913 81.3984C49.7913 81.3984 49.8926 89.5534 48.7783 91.5289Z" fill="url(#paint16_radial_1_344)"/>
<path style="mix-blend-mode:overlay" d="M41.6869 90.8197C41.0284 89.1482 41.4337 87.3753 42.548 86.8688C43.6624 86.3623 45.1313 87.3247 45.7391 88.9962C46.3976 90.7184 45.9924 92.4912 44.878 92.9978C43.7637 93.5043 42.2947 92.5419 41.6869 90.8197V90.8197Z" fill="url(#paint17_radial_1_344)"/>
<path d="M66.152 91.5289C65.0377 93.5043 62.5051 94.2134 60.479 93.0484C58.5035 91.8834 57.7944 89.3508 58.9594 87.3754C60.1244 85.3493 67.2157 81.3984 67.2157 81.3984C67.2157 81.3984 67.317 89.5534 66.152 91.5289Z" fill="url(#paint18_radial_1_344)"/>
<path style="mix-blend-mode:overlay" d="M59.0607 90.8197C58.4529 89.1482 58.8074 87.3753 59.9724 86.8688C61.0868 86.3623 62.5557 87.3247 63.1635 88.9962C63.822 90.7184 63.4168 92.4912 62.3024 92.9978C61.1881 93.5043 59.7192 92.5419 59.0607 90.8197V90.8197Z" fill="url(#paint19_radial_1_344)"/>
<path d="M83.5764 91.5289C82.4621 93.5043 79.8788 94.2134 77.9034 93.0484C75.9279 91.8834 75.2188 89.3508 76.3838 87.3754C77.5488 85.3493 84.6401 81.3984 84.6401 81.3984C84.6401 81.3984 84.7414 89.5534 83.5764 91.5289V91.5289Z" fill="url(#paint20_radial_1_344)"/>
<path style="mix-blend-mode:overlay" d="M76.4851 90.8197C75.8773 89.1482 76.2319 87.3753 77.3969 86.8688C78.5112 86.3623 79.9295 87.3247 80.588 88.9962C81.2464 90.7184 80.8412 92.4912 79.7269 92.9978C78.5619 93.5043 77.1436 92.5419 76.4851 90.8197V90.8197Z" fill="url(#paint21_radial_1_344)"/>
<defs>
<linearGradient id="paint0_linear_1_344" x1="121.616" y1="25.9847" x2="53.4889" y2="102.115" gradientUnits="userSpaceOnUse">
<stop stop-color="#FCB81F"/>
<stop offset="1" stop-color="#F05322"/>
</linearGradient>
<radialGradient id="paint1_radial_1_344" cx="0" cy="0" r="1" gradientUnits="userSpaceOnUse" gradientTransform="translate(62.5051 20.3116) scale(54.502 54.502)">
<stop stop-color="#FDF5C3"/>
<stop offset="0.2" stop-color="#FBE12E"/>
<stop offset="1" stop-color="#F37421"/>
</radialGradient>
<radialGradient id="paint2_radial_1_344" cx="0" cy="0" r="1" gradientUnits="userSpaceOnUse" gradientTransform="translate(67.1651 25.934) scale(10.485 10.485)">
<stop stop-color="#FEFEFE"/>
<stop offset="1" stop-color="#FEFEFE" stop-opacity="0"/>
</radialGradient>
<radialGradient id="paint3_radial_1_344" cx="0" cy="0" r="1" gradientUnits="userSpaceOnUse" gradientTransform="translate(39.8128 53.3876) scale(11.7007 11.7007)">
<stop stop-color="#FEFEFE"/>
<stop offset="1" stop-color="#FEFEFE" stop-opacity="0"/>
</radialGradient>
<radialGradient id="paint4_radial_1_344" cx="0" cy="0" r="1" gradientUnits="userSpaceOnUse" gradientTransform="translate(30.8473 49.1328) scale(37.5334 37.5334)">
<stop stop-color="#FEFEFE"/>
<stop offset="0.2" stop-color="#D6EFFB"/>
<stop offset="1" stop-color="#87BBE4"/>
</radialGradient>
<radialGradient id="paint5_radial_1_344" cx="0" cy="0" r="1" gradientUnits="userSpaceOnUse" gradientTransform="translate(39.3569 53.9954) scale(42.6493 42.6493)">
<stop stop-color="#FBE12E"/>
<stop offset="0.8" stop-color="#F37421" stop-opacity="0"/>
</radialGradient>
<radialGradient id="paint6_radial_1_344" cx="0" cy="0" r="1" gradientUnits="userSpaceOnUse" gradientTransform="translate(28.416 51.3109) scale(5.77437)">
<stop stop-color="#FEFEFE"/>
<stop offset="1" stop-color="#FEFEFE" stop-opacity="0"/>
</radialGradient>
<radialGradient id="paint7_radial_1_344" cx="0" cy="0" r="1" gradientUnits="userSpaceOnUse" gradientTransform="translate(42.0921 62.1505) scale(4.55872 4.55872)">
<stop stop-color="#FEFEFE"/>
<stop offset="1" stop-color="#FEFEFE" stop-opacity="0"/>
</radialGradient>
<radialGradient id="paint8_radial_1_344" cx="0" cy="0" r="1" gradientUnits="userSpaceOnUse" gradientTransform="translate(5.87568 69.2925) scale(2.27936)">
<stop stop-color="#FEFEFE"/>
<stop offset="1" stop-color="#FEFEFE" stop-opacity="0"/>
</radialGradient>
<radialGradient id="paint9_radial_1_344" cx="0" cy="0" r="1" gradientUnits="userSpaceOnUse" gradientTransform="translate(93.9602 20.2103) scale(29.0745 29.0745)">
<stop stop-color="#FEFEFE"/>
<stop offset="0.2" stop-color="#D6EFFB"/>
<stop offset="1" stop-color="#87BBE4"/>
</radialGradient>
<radialGradient id="paint10_radial_1_344" cx="0" cy="0" r="1" gradientUnits="userSpaceOnUse" gradientTransform="translate(74.9655 30.1888) scale(38.8504 38.8504)">
<stop stop-color="#FBE12E"/>
<stop offset="0.8" stop-color="#F37421" stop-opacity="0"/>
</radialGradient>
<radialGradient id="paint11_radial_1_344" cx="0" cy="0" r="1" gradientUnits="userSpaceOnUse" gradientTransform="translate(92.086 21.9325) scale(4.45741 4.45741)">
<stop stop-color="#FEFEFE"/>
<stop offset="1" stop-color="#FEFEFE" stop-opacity="0"/>
</radialGradient>
<radialGradient id="paint12_radial_1_344" cx="0" cy="0" r="1" gradientUnits="userSpaceOnUse" gradientTransform="translate(102.672 30.2901) scale(3.54566 3.54567)">
<stop stop-color="#FEFEFE"/>
<stop offset="1" stop-color="#FEFEFE" stop-opacity="0"/>
</radialGradient>
<radialGradient id="paint13_radial_1_344" cx="0" cy="0" r="1" gradientUnits="userSpaceOnUse" gradientTransform="translate(74.611 35.8619) scale(1.77284 1.77283)">
<stop stop-color="#FEFEFE"/>
<stop offset="1" stop-color="#FEFEFE" stop-opacity="0"/>
</radialGradient>
<radialGradient id="paint14_radial_1_344" cx="0" cy="0" r="1" gradientUnits="userSpaceOnUse" gradientTransform="translate(26.1366 90.1612) scale(9.26938 9.26939)">
<stop stop-color="#D0EDFA"/>
<stop offset="0.2" stop-color="#D6EFFB"/>
<stop offset="1" stop-color="#87BBE4"/>
</radialGradient>
<radialGradient id="paint15_radial_1_344" cx="0" cy="0" r="1" gradientUnits="userSpaceOnUse" gradientTransform="translate(26.2886 89.908) scale(1.97544 1.97544)">
<stop stop-color="#FEFEFE"/>
<stop offset="1" stop-color="#FEFEFE" stop-opacity="0"/>
</radialGradient>
<radialGradient id="paint16_radial_1_344" cx="0" cy="0" r="1" gradientUnits="userSpaceOnUse" gradientTransform="translate(43.5611 90.1612) scale(9.26938 9.26939)">
<stop stop-color="#D0EDFA"/>
<stop offset="0.2" stop-color="#D6EFFB"/>
<stop offset="1" stop-color="#87BBE4"/>
</radialGradient>
<radialGradient id="paint17_radial_1_344" cx="0" cy="0" r="1" gradientUnits="userSpaceOnUse" gradientTransform="translate(43.713 89.908) scale(1.97544 1.97544)">
<stop stop-color="#FEFEFE"/>
<stop offset="1" stop-color="#FEFEFE" stop-opacity="0"/>
</radialGradient>
<radialGradient id="paint18_radial_1_344" cx="0" cy="0" r="1" gradientUnits="userSpaceOnUse" gradientTransform="translate(60.9855 90.1612) scale(9.26938 9.26939)">
<stop stop-color="#D0EDFA"/>
<stop offset="0.2" stop-color="#D6EFFB"/>
<stop offset="1" stop-color="#87BBE4"/>
</radialGradient>
<radialGradient id="paint19_radial_1_344" cx="0" cy="0" r="1" gradientUnits="userSpaceOnUse" gradientTransform="translate(61.1374 89.908) scale(1.97544)">
<stop stop-color="#FEFEFE"/>
<stop offset="1" stop-color="#FEFEFE" stop-opacity="0"/>
</radialGradient>
<radialGradient id="paint20_radial_1_344" cx="0" cy="0" r="1" gradientUnits="userSpaceOnUse" gradientTransform="translate(78.4099 90.1612) scale(9.26938 9.26939)">
<stop stop-color="#D0EDFA"/>
<stop offset="0.2" stop-color="#D6EFFB"/>
<stop offset="1" stop-color="#87BBE4"/>
</radialGradient>
<radialGradient id="paint21_radial_1_344" cx="0" cy="0" r="1" gradientUnits="userSpaceOnUse" gradientTransform="translate(78.5619 89.908) scale(1.97545 1.97544)">
<stop stop-color="#FEFEFE"/>
<stop offset="1" stop-color="#FEFEFE" stop-opacity="0"/>
</radialGradient>
</defs>
</svg>
