<svg width="185" height="189" viewBox="0 0 185 189" fill="none" xmlns="http://www.w3.org/2000/svg">
<path d="M184.4 90.9C184.4 113.1 166.4 131.1 144.2 131.1H40.5C18.2 131.1 0.199982 113.1 0.199982 90.9C0.199982 69.3 17.2 51.7 38.4 50.7C40.4 22.6 63.7 0.400024 92.3 0.400024C120.9 0.400024 144.3 22.6 146.2 50.7C167.5 51.7 184.4 69.3 184.4 90.9Z" fill="url(#paint0_radial_1_344)"/>
<path style="mix-blend-mode:overlay" d="M92.3 55.7C77.2 43.4 71.3 24.7 79.1 13.9C87 3.10003 105.6 4.30005 120.8 16.6C135.9 28.9 141.8 47.6 134 58.4C126.1 69.2 107.5 68 92.3 55.7V55.7Z" fill="url(#paint1_radial_1_344)"/>
<path style="mix-blend-mode:overlay" opacity="0.4" d="M146.5 92C134.6 82.4 129.9 67.7 136.1 59.2C142.3 50.7 156.9 51.6 168.9 61.3C180.8 70.9 185.4 85.7 179.2 94.1C173.1 102.6 158.4 101.7 146.5 92V92Z" fill="url(#paint2_radial_1_344)"/>
<path style="mix-blend-mode:overlay" opacity="0.2" d="M38 128.3C34.2 133.8 24 127.2 15.2 113.5C6.39999 99.8 2.39999 84.2 6.19999 78.6C9.99999 73.1 20.2 79.7 29 93.4C37.8 107.1 41.8 122.7 38 128.3Z" fill="url(#paint3_radial_1_344)"/>
<path d="M47.4 155.9C45.1 159.8 40.1 161.1 36.1 158.9C32.2 156.6 30.9 151.6 33.1 147.6C35.4 143.7 49.4 135.8 49.4 135.8C49.4 135.8 49.6 151.9 47.4 155.9Z" fill="url(#paint4_radial_1_344)"/>
<path style="mix-blend-mode:overlay" d="M33.4 154.5C32.1 151.2 32.9 147.7 35.1 146.7C37.3 145.7 40.2 147.6 41.5 150.9C42.7 154.2 42 157.7 39.7 158.7C37.5 159.7 34.7 157.8 33.4 154.5V154.5Z" fill="url(#paint5_radial_1_344)"/>
<path d="M81.8 155.9C79.5 159.8 74.5 161.1 70.5 158.9C66.6 156.6 65.3 151.6 67.5 147.6C69.8 143.7 83.8 135.8 83.8 135.8C83.8 135.8 84 151.9 81.8 155.9Z" fill="url(#paint6_radial_1_344)"/>
<path style="mix-blend-mode:overlay" d="M67.8 154.5C66.5 151.2 67.3 147.7 69.5 146.7C71.7 145.7 74.6 147.6 75.8 150.9C77.1 154.2 76.3 157.7 74.1 158.7C71.9 159.7 69 157.8 67.8 154.5Z" fill="url(#paint7_radial_1_344)"/>
<path d="M116.2 155.9C113.9 159.8 108.9 161.1 104.9 158.9C101 156.6 99.6 151.6 101.9 147.6C104.2 143.7 118.2 135.8 118.2 135.8C118.2 135.8 118.4 151.9 116.1 155.9H116.2Z" fill="url(#paint8_radial_1_344)"/>
<path style="mix-blend-mode:overlay" d="M102.1 154.5C100.9 151.2 101.6 147.7 103.9 146.7C106.1 145.7 109 147.6 110.2 150.9C111.5 154.2 110.7 157.7 108.5 158.7C106.3 159.7 103.4 157.8 102.1 154.5V154.5Z" fill="url(#paint9_radial_1_344)"/>
<path d="M150.5 155.9C148.3 159.8 143.2 161.1 139.3 158.9C135.4 156.6 134 151.6 136.3 147.6C138.6 143.7 152.6 135.8 152.6 135.8C152.6 135.8 152.8 151.9 150.5 155.9V155.9Z" fill="url(#paint10_radial_1_344)"/>
<path style="mix-blend-mode:overlay" d="M136.5 154.5C135.3 151.2 136 147.7 138.3 146.7C140.5 145.7 143.3 147.6 144.6 150.9C145.9 154.2 145.1 157.7 142.9 158.7C140.7 159.7 137.8 157.8 136.5 154.5V154.5Z" fill="url(#paint11_radial_1_344)"/>
<path d="M64.6 184.8C62.3 188.7 57.3 190 53.3 187.8C49.4 185.5 48.1 180.5 50.3 176.5C52.6 172.6 66.6 164.7 66.6 164.7C66.6 164.7 66.8 180.8 64.6 184.8Z" fill="url(#paint12_radial_1_344)"/>
<path style="mix-blend-mode:overlay" d="M50.6 183.4C49.3 180.1 50.1 176.6 52.3 175.6C54.5 174.6 57.4 176.5 58.6 179.8C59.9 183.1 59.1 186.6 56.9 187.6C54.7 188.6 51.8 186.7 50.6 183.4Z" fill="url(#paint13_radial_1_344)"/>
<path d="M99 184.8C96.7 188.7 91.7 190 87.7 187.8C83.8 185.5 82.4 180.5 84.7 176.5C87 172.6 101 164.7 101 164.7C101 164.7 101.2 180.8 99 184.8Z" fill="url(#paint14_radial_1_344)"/>
<path style="mix-blend-mode:overlay" d="M85 183.4C83.7 180.1 84.5 176.6 86.7 175.6C88.9 174.6 91.8 176.5 93 179.8C94.3 183.1 93.5 186.6 91.3 187.6C89.1 188.6 86.2 186.7 85 183.4Z" fill="url(#paint15_radial_1_344)"/>
<path d="M133.3 184.8C131.1 188.7 126 190 122.1 187.8C118.2 185.5 116.8 180.5 119.1 176.5C121.4 172.6 135.4 164.7 135.4 164.7C135.4 164.7 135.6 180.8 133.3 184.8Z" fill="url(#paint16_radial_1_344)"/>
<path style="mix-blend-mode:overlay" d="M119.3 183.4C118.1 180.1 118.8 176.6 121.1 175.6C123.3 174.6 126.1 176.5 127.4 179.8C128.7 183.1 127.9 186.6 125.7 187.6C123.5 188.6 120.6 186.7 119.3 183.4V183.4Z" fill="url(#paint17_radial_1_344)"/>
<defs>
<radialGradient id="paint0_radial_1_344" cx="0" cy="0" r="1" gradientUnits="userSpaceOnUse" gradientTransform="translate(115.6 27.9) scale(140.5 140.5)">
<stop stop-color="#FEFEFE"/>
<stop offset="0.2" stop-color="#D6EFFB"/>
<stop offset="1" stop-color="#87BBE4"/>
</radialGradient>
<radialGradient id="paint1_radial_1_344" cx="0" cy="0" r="1" gradientUnits="userSpaceOnUse" gradientTransform="translate(106.6 36.1) scale(21.7 21.7)">
<stop stop-color="#FEFEFE"/>
<stop offset="1" stop-color="#FEFEFE" stop-opacity="0"/>
</radialGradient>
<radialGradient id="paint2_radial_1_344" cx="0" cy="0" r="1" gradientUnits="userSpaceOnUse" gradientTransform="translate(157.7 76.7) scale(17 17)">
<stop stop-color="#FEFEFE"/>
<stop offset="1" stop-color="#FEFEFE" stop-opacity="0"/>
</radialGradient>
<radialGradient id="paint3_radial_1_344" cx="0" cy="0" r="1" gradientUnits="userSpaceOnUse" gradientTransform="translate(22.1 103.4) scale(8.6 8.6)">
<stop stop-color="#FEFEFE"/>
<stop offset="1" stop-color="#FEFEFE" stop-opacity="0"/>
</radialGradient>
<radialGradient id="paint4_radial_1_344" cx="0" cy="0" r="1" gradientUnits="userSpaceOnUse" gradientTransform="translate(37.1 153.2) scale(18.3 18.3)">
<stop stop-color="#D0EDFA"/>
<stop offset="0.2" stop-color="#D6EFFB"/>
<stop offset="1" stop-color="#87BBE4"/>
</radialGradient>
<radialGradient id="paint5_radial_1_344" cx="0" cy="0" r="1" gradientUnits="userSpaceOnUse" gradientTransform="translate(37.4 152.7) scale(3.9)">
<stop stop-color="#FEFEFE"/>
<stop offset="1" stop-color="#FEFEFE" stop-opacity="0"/>
</radialGradient>
<radialGradient id="paint6_radial_1_344" cx="0" cy="0" r="1" gradientUnits="userSpaceOnUse" gradientTransform="translate(71.5 153.2) scale(18.3 18.3)">
<stop stop-color="#D0EDFA"/>
<stop offset="0.2" stop-color="#D6EFFB"/>
<stop offset="1" stop-color="#87BBE4"/>
</radialGradient>
<radialGradient id="paint7_radial_1_344" cx="0" cy="0" r="1" gradientUnits="userSpaceOnUse" gradientTransform="translate(71.8 152.7) scale(3.9)">
<stop stop-color="#FEFEFE"/>
<stop offset="1" stop-color="#FEFEFE" stop-opacity="0"/>
</radialGradient>
<radialGradient id="paint8_radial_1_344" cx="0" cy="0" r="1" gradientUnits="userSpaceOnUse" gradientTransform="translate(105.9 153.2) scale(18.3 18.3)">
<stop stop-color="#D0EDFA"/>
<stop offset="0.2" stop-color="#D6EFFB"/>
<stop offset="1" stop-color="#87BBE4"/>
</radialGradient>
<radialGradient id="paint9_radial_1_344" cx="0" cy="0" r="1" gradientUnits="userSpaceOnUse" gradientTransform="translate(106.2 152.7) scale(3.89999 3.9)">
<stop stop-color="#FEFEFE"/>
<stop offset="1" stop-color="#FEFEFE" stop-opacity="0"/>
</radialGradient>
<radialGradient id="paint10_radial_1_344" cx="0" cy="0" r="1" gradientUnits="userSpaceOnUse" gradientTransform="translate(140.3 153.2) scale(18.3 18.3)">
<stop stop-color="#D0EDFA"/>
<stop offset="0.2" stop-color="#D6EFFB"/>
<stop offset="1" stop-color="#87BBE4"/>
</radialGradient>
<radialGradient id="paint11_radial_1_344" cx="0" cy="0" r="1" gradientUnits="userSpaceOnUse" gradientTransform="translate(140.6 152.7) scale(3.90001 3.9)">
<stop stop-color="#FEFEFE"/>
<stop offset="1" stop-color="#FEFEFE" stop-opacity="0"/>
</radialGradient>
<radialGradient id="paint12_radial_1_344" cx="0" cy="0" r="1" gradientUnits="userSpaceOnUse" gradientTransform="translate(54.3 182) scale(18.3 18.3)">
<stop stop-color="#D0EDFA"/>
<stop offset="0.2" stop-color="#D6EFFB"/>
<stop offset="1" stop-color="#87BBE4"/>
</radialGradient>
<radialGradient id="paint13_radial_1_344" cx="0" cy="0" r="1" gradientUnits="userSpaceOnUse" gradientTransform="translate(54.6 181.6) scale(3.9)">
<stop stop-color="#FEFEFE"/>
<stop offset="1" stop-color="#FEFEFE" stop-opacity="0"/>
</radialGradient>
<radialGradient id="paint14_radial_1_344" cx="0" cy="0" r="1" gradientUnits="userSpaceOnUse" gradientTransform="translate(88.7 182) scale(18.3 18.3)">
<stop stop-color="#D0EDFA"/>
<stop offset="0.2" stop-color="#D6EFFB"/>
<stop offset="1" stop-color="#87BBE4"/>
</radialGradient>
<radialGradient id="paint15_radial_1_344" cx="0" cy="0" r="1" gradientUnits="userSpaceOnUse" gradientTransform="translate(89 181.6) scale(3.9)">
<stop stop-color="#FEFEFE"/>
<stop offset="1" stop-color="#FEFEFE" stop-opacity="0"/>
</radialGradient>
<radialGradient id="paint16_radial_1_344" cx="0" cy="0" r="1" gradientUnits="userSpaceOnUse" gradientTransform="translate(123.1 182) scale(18.3 18.3)">
<stop stop-color="#D0EDFA"/>
<stop offset="0.2" stop-color="#D6EFFB"/>
<stop offset="1" stop-color="#87BBE4"/>
</radialGradient>
<radialGradient id="paint17_radial_1_344" cx="0" cy="0" r="1" gradientUnits="userSpaceOnUse" gradientTransform="translate(123.4 181.6) scale(3.9)">
<stop stop-color="#FEFEFE"/>
<stop offset="1" stop-color="#FEFEFE" stop-opacity="0"/>
</radialGradient>
</defs>
</svg>
