<svg width="144" height="144" viewBox="0 0 144 144" fill="none" xmlns="http://www.w3.org/2000/svg">
<path d="M72 0C111.867 0 144 32.2667 144 72C144 111.867 111.867 144 72 144C32.2667 144 0 111.867 0 72C0 32.2667 32.2667 0 72 0V0Z" fill="url(#paint0_radial_1_344)"/>
<path d="M8.00001 69.8667C7.20001 60.9334 12.1333 53.3334 18.8 52.6667C25.6 52.1334 31.7334 58.8001 32.5334 67.6001C33.3334 76.5334 28.5334 84.1334 21.7334 84.8C14.9334 85.3334 8.80001 78.6667 8.00001 69.8667Z" fill="#ACADB2"/>
<path d="M28.2668 96.9334C31.0668 102.267 30 108.267 26 110.4C21.8667 112.533 16.4001 110 13.6001 104.667C10.8001 99.3333 11.8667 93.3333 15.8667 91.2C19.8667 89.0666 25.4668 91.7334 28.2668 96.9334Z" fill="#ACADB2"/>
<path d="M39.2 88.2666C40.9334 91.3333 40.2667 94.9332 37.8667 96.1332C35.4667 97.4666 32.2667 95.8666 30.5334 92.7999C28.9334 89.5999 29.6 86.1332 31.8667 84.7999C34.2667 83.5999 37.6 85.0666 39.2 88.2666Z" fill="#ACADB2"/>
<path d="M128.667 92.2667C121.867 93.2 115.467 86.9333 114.267 78.1333C112.933 69.3333 117.467 61.3333 124.133 60.4C130.8 59.4666 137.333 65.8667 138.533 74.6667C139.867 83.4667 135.333 91.3333 128.667 92.2667V92.2667Z" fill="#ACADB2"/>
<path d="M117.067 48.5333C114 43.4666 114.667 37.3333 118.667 35.0667C122.533 32.6667 128.267 34.9333 131.2 40.1333C134.267 45.3333 133.6 51.3333 129.6 53.7333C125.733 56 120 53.7333 117.067 48.5333Z" fill="#ACADB2"/>
<path d="M114 60.9334C111.6 62.2667 108.267 60.9333 106.4 57.8666C104.667 54.8 105.067 51.2 107.467 49.8666C109.733 48.5333 113.067 49.8667 114.933 52.9334C116.667 55.8667 116.267 59.4667 114 60.9334V60.9334Z" fill="#ACADB2"/>
<path style="mix-blend-mode:overlay" d="M83.0668 64.6667C64.6668 49.7333 57.4668 27.0667 67.0668 14C76.5334 0.933325 99.0667 2.39999 117.467 17.3333C135.867 32.1333 142.933 54.7999 133.467 67.8666C123.867 80.9333 101.333 79.4667 83.0668 64.6667Z" fill="url(#paint1_radial_1_344)"/>
<path style="mix-blend-mode:overlay" opacity="0.4" d="M8.40013 88C10.8001 80 23.2001 83.3333 36.0001 95.3333C48.8001 107.333 57.2 123.6 54.8 131.6C52.4 139.467 40.0001 136.267 27.2001 124.133C14.4001 112.133 6.00013 95.8666 8.40013 88Z" fill="url(#paint2_radial_1_344)"/>
<defs>
<radialGradient id="paint0_radial_1_344" cx="0" cy="0" r="1" gradientUnits="userSpaceOnUse" gradientTransform="translate(88.5333 26.9333) scale(136.667)">
<stop stop-color="#F9FAFA"/>
<stop offset="0.2" stop-color="#EEEAF2"/>
<stop offset="1" stop-color="#9A9DA1"/>
</radialGradient>
<radialGradient id="paint1_radial_1_344" cx="0" cy="0" r="1" gradientUnits="userSpaceOnUse" gradientTransform="translate(100.267 40.9333) scale(26.2666 26.2667)">
<stop stop-color="#FEFEFE"/>
<stop offset="1" stop-color="#FEFEFE" stop-opacity="0"/>
</radialGradient>
<radialGradient id="paint2_radial_1_344" cx="0" cy="0" r="1" gradientUnits="userSpaceOnUse" gradientTransform="translate(31.6001 109.733) scale(29.3333 29.3333)">
<stop stop-color="#FEFEFE"/>
<stop offset="1" stop-color="#FEFEFE" stop-opacity="0"/>
</radialGradient>
</defs>
</svg>
