<svg width="130" height="147" viewBox="0 0 130 147" fill="none" xmlns="http://www.w3.org/2000/svg">
<path fill-rule="evenodd" clip-rule="evenodd" d="M128.4 110.2C127.2 112.4 124.8 113.7 122.5 113.7C121.3 113.7 120.1 113.4 119 112.7L105.6 105V109.8C105.6 113.6 102.5 116.7 98.7001 116.7C94.9001 116.7 91.8 113.6 91.8 109.8V97L81.6 91.1C78.8 93.7 75.4 95.7 71.7 96.8V108.6L82.8 115C86.1 116.9 87.2 121.1 85.3 124.4C84 126.6 81.7 127.9 79.3 127.9C78.1 127.9 77 127.6 75.9 126.9L71.7 124.5V140C71.7 143.8 68.6 146.9 64.8 146.9C61 146.9 57.9 143.8 57.9 140V124.5L53.8 126.9C50.5 128.8 46.2 127.7 44.3 124.4C42.4 121.1 43.6 116.9 46.9 115L57.9 108.6V96.8C54.2 95.7 50.8 93.7 48.1 91.1L37.8 97V109.8C37.8 113.6 34.7 116.7 30.9 116.7C27.1 116.7 24 113.6 24 109.8V105L10.6 112.7C9.50001 113.4 8.29999 113.7 7.19999 113.7C4.79999 113.7 2.49999 112.4 1.19999 110.2C-0.700012 106.9 0.399988 102.7 3.69999 100.8L17.2 93L13 90.6C9.69998 88.7 8.59998 84.5 10.5 81.2C12.4 77.9 16.6 76.8 19.9 78.7L30.9 85.1L41.2 79.2C40.7 77.3 40.5 75.4 40.5 73.5C40.5 71.5 40.7 69.6 41.2 67.8L30.9 61.9L19.9 68.3C18.8 68.9 17.6 69.2 16.4 69.2C14.1 69.2 11.7 68 10.5 65.7C8.59998 62.4 9.69998 58.2 13 56.3L17.2 53.9L3.69999 46.2C0.399988 44.3 -0.700012 40 1.19999 36.7C3.09999 33.4 7.30001 32.3 10.6 34.2L24 42V37.2C24 33.4 27.1 30.3 30.9 30.3C34.8 30.3 37.8 33.4 37.8 37.2V49.9L48.1 55.8C50.8 53.2 54.2 51.2 57.9 50.1V38.3L46.9 32C43.6 30.1 42.4 25.8 44.3 22.5C46.2 19.2 50.5 18.1 53.8 20L57.9 22.4V6.90002C57.9 3.10002 61 0 64.8 0C68.6 0 71.7 3.10002 71.7 6.90002V22.4L75.9 20C79.2 18.1 83.4 19.2 85.3 22.5C87.2 25.8 86.1 30.1 82.8 32L71.7 38.3V50.1C75.5 51.2 78.8 53.2 81.6 55.8L91.8 49.9V37.2C91.8 33.4 94.9001 30.3 98.7001 30.3C102.5 30.3 105.6 33.4 105.6 37.2V42L119 34.2C122.3 32.3 126.5 33.4 128.4 36.7C130.3 40 129.2 44.3 125.9 46.2L112.5 53.9L116.6 56.3C119.9 58.2 121.1 62.4 119.2 65.7C117.9 68 115.6 69.2 113.2 69.2C112 69.2 110.8 68.9 109.7 68.3L98.7001 61.9L88.5 67.8C88.9 69.6 89.2001 71.5 89.2001 73.5C89.2001 75.4 88.9 77.3 88.5 79.2L98.7001 85.1L109.7 78.7C113 76.8 117.3 77.9 119.2 81.2C121.1 84.5 119.9 88.7 116.6 90.6L112.5 93L125.9 100.8C129.2 102.7 130.3 106.9 128.4 110.2ZM75.4 73.5C75.4 67.6 70.6 62.9 64.8 62.9C59 62.9 54.3 67.6 54.3 73.5C54.3 79.3 59 84 64.8 84C70.6 84 75.4 79.3 75.4 73.5Z" fill="url(#paint0_radial_1_344)"/>
<defs>
<radialGradient id="paint0_radial_1_344" cx="0" cy="0" r="1" gradientUnits="userSpaceOnUse" gradientTransform="translate(106.3 44.2) scale(123.4 123.4)">
<stop stop-color="#35C4E4"/>
<stop offset="1" stop-color="#1E55A5"/>
</radialGradient>
</defs>
</svg>
