<svg width="151" height="133" viewBox="0 0 151 133" fill="none" xmlns="http://www.w3.org/2000/svg">
<path d="M111.779 0C133.496 0 151 17.5767 151 39.2208C151 60.9375 133.496 78.4416 111.779 78.4416C90.1352 78.4416 72.5584 60.9375 72.5584 39.2208C72.5584 17.5767 90.1352 0 111.779 0V0Z" fill="url(#paint0_radial_1_344)"/>
<path d="M76.9163 38.0586C76.4805 33.1923 79.1679 29.0524 82.7994 28.6892C86.5036 28.3987 89.8447 32.0302 90.2805 36.8239C90.7162 41.6902 88.1015 45.8301 84.3974 46.1933C80.6932 46.4838 77.3521 42.8522 76.9163 38.0586Z" fill="#ACADB2"/>
<path d="M87.9563 52.8027C89.4815 55.708 88.9004 58.9764 86.7215 60.1385C84.4699 61.3006 81.4921 59.9206 79.9669 57.0153C78.4416 54.1101 79.0226 50.8417 81.2016 49.6796C83.3805 48.5175 86.431 49.9701 87.9563 52.8027Z" fill="#ACADB2"/>
<path d="M93.912 48.0818C94.8562 49.7523 94.4931 51.7134 93.1857 52.367C91.8783 53.0933 90.1352 52.2218 89.191 50.5513C88.3194 48.8081 88.6826 46.9197 89.9173 46.1934C91.2247 45.5397 93.0404 46.3387 93.912 48.0818Z" fill="#ACADB2"/>
<path d="M142.647 50.2607C138.943 50.7691 135.457 47.3554 134.803 42.5618C134.077 37.7681 136.546 33.4103 140.178 32.9018C143.81 32.3934 147.368 35.8797 148.022 40.6734C148.748 45.467 146.279 49.7523 142.647 50.2607V50.2607Z" fill="#ACADB2"/>
<path d="M136.329 26.4378C134.658 23.6778 135.021 20.3368 137.2 19.1021C139.306 17.7947 142.43 19.0295 144.027 21.8621C145.698 24.6947 145.335 27.9631 143.156 29.2705C141.05 30.5052 137.926 29.2704 136.329 26.4378Z" fill="#ACADB2"/>
<path d="M134.658 33.1923C133.351 33.9187 131.535 33.1923 130.518 31.5218C129.574 29.8513 129.792 27.8902 131.099 27.1639C132.334 26.4376 134.15 27.164 135.166 28.8345C136.111 30.4324 135.893 32.3934 134.658 33.1923V33.1923Z" fill="#ACADB2"/>
<path style="mix-blend-mode:overlay" d="M117.808 35.226C107.785 27.0913 103.862 14.744 109.092 7.62618C114.249 0.50834 126.523 1.30728 136.546 9.44196C146.569 17.504 150.419 29.8513 145.262 36.9691C140.033 44.087 127.758 43.288 117.808 35.226Z" fill="url(#paint1_radial_1_344)"/>
<path style="mix-blend-mode:overlay" opacity="0.4" d="M77.1343 47.9366C78.4416 43.5787 85.1963 45.3945 92.1689 51.9313C99.1415 58.4681 103.717 67.3291 102.41 71.687C101.102 75.9722 94.3478 74.229 87.3752 67.6196C80.4027 61.0828 75.8269 52.2218 77.1343 47.9366Z" fill="url(#paint2_radial_1_344)"/>
<path d="M133.786 79.0225C133.786 95.1466 120.713 108.22 104.516 108.22H29.1977C13.0736 108.22 0 95.1466 0 79.0225C0 63.3342 12.2747 50.5511 27.7451 49.8248C29.1251 29.4155 46.1208 13.2914 66.8933 13.2914C87.6658 13.2914 104.589 29.4155 106.041 49.8248C121.512 50.5511 133.786 63.3342 133.786 79.0225V79.0225Z" fill="url(#paint3_radial_1_344)"/>
<path style="mix-blend-mode:overlay" d="M66.8933 53.4564C55.8534 44.5228 51.5681 30.9407 57.306 23.0966C62.9712 15.2524 76.5532 16.124 87.5205 25.0576C98.5604 33.9913 102.846 47.5733 97.1078 55.4174C91.4426 63.2616 77.8606 62.39 66.8933 53.4564Z" fill="url(#paint4_radial_1_344)"/>
<path style="mix-blend-mode:overlay" opacity="0.4" d="M106.187 79.8216C97.5436 72.849 94.2025 62.0996 98.7057 55.9986C103.136 49.8249 113.813 50.4786 122.456 57.5239C131.099 64.4964 134.513 75.2458 130.01 81.3468C125.507 87.5205 114.83 86.8668 106.187 79.8216V79.8216Z" fill="url(#paint5_radial_1_344)"/>
<path style="mix-blend-mode:overlay" opacity="0.2" d="M27.382 106.187C24.622 110.181 17.2136 105.388 10.8221 95.4371C4.43052 85.4866 1.52528 74.1562 4.28526 70.0889C7.11787 66.0942 14.5263 70.8878 20.8452 80.8383C27.2367 90.7887 30.2146 102.119 27.382 106.187Z" fill="url(#paint6_radial_1_344)"/>
<path d="M29.3135 128.773C27.5442 132.028 23.4428 133.112 20.3064 131.277C17.17 129.357 16.0441 125.185 17.8938 121.847C19.7434 118.592 31.0023 112 31.0023 112C31.0023 112 31.1632 125.435 29.3135 128.773V128.773Z" fill="url(#paint7_radial_1_344)"/>
<path style="mix-blend-mode:overlay" d="M18.0546 127.605C17.0895 124.851 17.6525 121.93 19.5022 121.096C21.2714 120.261 23.5232 121.847 24.5687 124.601C25.6141 127.355 24.9708 130.275 23.2015 131.11C21.3519 131.944 19.1001 130.359 18.0546 127.605V127.605Z" fill="url(#paint8_radial_1_344)"/>
<path d="M56.9782 128.773C55.1285 132.028 51.1075 133.112 47.9711 131.277C44.8347 129.357 43.7088 125.185 45.5585 121.847C47.3277 118.592 58.6671 112 58.6671 112C58.6671 112 58.8279 125.435 56.9782 128.773V128.773Z" fill="url(#paint9_radial_1_344)"/>
<path style="mix-blend-mode:overlay" d="M45.7193 127.605C44.6739 124.851 45.3172 121.93 47.0865 121.096C48.9361 120.261 51.1879 121.847 52.2334 124.601C53.2789 127.355 52.6355 130.275 50.8662 131.11C49.0166 131.944 46.7648 130.359 45.7193 127.605Z" fill="url(#paint10_radial_1_344)"/>
<path d="M84.6429 128.773C82.7933 132.028 78.7722 133.112 75.6358 131.277C72.419 129.357 71.3735 125.185 73.2232 121.847C74.9924 118.592 86.3318 112 86.3318 112C86.3318 112 86.4926 125.435 84.6429 128.773V128.773Z" fill="url(#paint11_radial_1_344)"/>
<path style="mix-blend-mode:overlay" d="M73.384 127.605C72.3386 124.851 72.9819 121.93 74.7512 121.096C76.6009 120.261 78.8526 121.847 79.8981 124.601C80.9436 127.355 80.3002 130.275 78.5309 131.11C76.6813 131.944 74.4295 130.359 73.384 127.605Z" fill="url(#paint12_radial_1_344)"/>
<path d="M112.308 128.773C110.458 132.028 106.437 133.112 103.301 131.277C100.084 129.357 99.0382 125.185 100.807 121.847C102.657 118.592 113.996 112 113.996 112C113.996 112 114.157 125.435 112.308 128.773V128.773Z" fill="url(#paint13_radial_1_344)"/>
<path style="mix-blend-mode:overlay" d="M101.049 127.605C100.003 124.851 100.647 121.93 102.416 121.096C104.266 120.261 106.517 121.847 107.563 124.601C108.528 127.355 107.965 130.275 106.115 131.11C104.346 131.944 102.094 130.359 101.049 127.605V127.605Z" fill="url(#paint14_radial_1_344)"/>
<defs>
<radialGradient id="paint0_radial_1_344" cx="0" cy="0" r="1" gradientUnits="userSpaceOnUse" gradientTransform="translate(120.785 14.6715) scale(74.4469)">
<stop stop-color="#F9FAFA"/>
<stop offset="0.2" stop-color="#EEEAF2"/>
<stop offset="1" stop-color="#9A9DA1"/>
</radialGradient>
<radialGradient id="paint1_radial_1_344" cx="0" cy="0" r="1" gradientUnits="userSpaceOnUse" gradientTransform="translate(127.177 22.2977) scale(14.3083 14.3083)">
<stop stop-color="#FEFEFE"/>
<stop offset="1" stop-color="#FEFEFE" stop-opacity="0"/>
</radialGradient>
<radialGradient id="paint2_radial_1_344" cx="0" cy="0" r="1" gradientUnits="userSpaceOnUse" gradientTransform="translate(89.7721 59.7755) scale(15.9788 15.9788)">
<stop stop-color="#FEFEFE"/>
<stop offset="1" stop-color="#FEFEFE" stop-opacity="0"/>
</radialGradient>
<radialGradient id="paint3_radial_1_344" cx="0" cy="0" r="1" gradientUnits="userSpaceOnUse" gradientTransform="translate(83.7437 33.2649) scale(102.047 102.047)">
<stop stop-color="#FEFEFE"/>
<stop offset="0.2" stop-color="#D6EFFB"/>
<stop offset="1" stop-color="#87BBE4"/>
</radialGradient>
<radialGradient id="paint4_radial_1_344" cx="0" cy="0" r="1" gradientUnits="userSpaceOnUse" gradientTransform="translate(77.2069 39.2207) scale(15.7609 15.7609)">
<stop stop-color="#FEFEFE"/>
<stop offset="1" stop-color="#FEFEFE" stop-opacity="0"/>
</radialGradient>
<radialGradient id="paint5_radial_1_344" cx="0" cy="0" r="1" gradientUnits="userSpaceOnUse" gradientTransform="translate(114.321 68.6364) scale(12.3473 12.3473)">
<stop stop-color="#FEFEFE"/>
<stop offset="1" stop-color="#FEFEFE" stop-opacity="0"/>
</radialGradient>
<radialGradient id="paint6_radial_1_344" cx="0" cy="0" r="1" gradientUnits="userSpaceOnUse" gradientTransform="translate(15.8336 88.1014) scale(6.24628 6.24627)">
<stop stop-color="#FEFEFE"/>
<stop offset="1" stop-color="#FEFEFE" stop-opacity="0"/>
</radialGradient>
<radialGradient id="paint7_radial_1_344" cx="0" cy="0" r="1" gradientUnits="userSpaceOnUse" gradientTransform="translate(21.1106 126.437) scale(14.717 15.271)">
<stop stop-color="#D0EDFA"/>
<stop offset="0.2" stop-color="#D6EFFB"/>
<stop offset="1" stop-color="#87BBE4"/>
</radialGradient>
<radialGradient id="paint8_radial_1_344" cx="0" cy="0" r="1" gradientUnits="userSpaceOnUse" gradientTransform="translate(21.3518 126.103) scale(3.13641 3.25449)">
<stop stop-color="#FEFEFE"/>
<stop offset="1" stop-color="#FEFEFE" stop-opacity="0"/>
</radialGradient>
<radialGradient id="paint9_radial_1_344" cx="0" cy="0" r="1" gradientUnits="userSpaceOnUse" gradientTransform="translate(48.7753 126.437) scale(14.717 15.271)">
<stop stop-color="#D0EDFA"/>
<stop offset="0.2" stop-color="#D6EFFB"/>
<stop offset="1" stop-color="#87BBE4"/>
</radialGradient>
<radialGradient id="paint10_radial_1_344" cx="0" cy="0" r="1" gradientUnits="userSpaceOnUse" gradientTransform="translate(49.0166 126.103) scale(3.1364 3.25449)">
<stop stop-color="#FEFEFE"/>
<stop offset="1" stop-color="#FEFEFE" stop-opacity="0"/>
</radialGradient>
<radialGradient id="paint11_radial_1_344" cx="0" cy="0" r="1" gradientUnits="userSpaceOnUse" gradientTransform="translate(76.44 126.437) scale(14.717 15.271)">
<stop stop-color="#D0EDFA"/>
<stop offset="0.2" stop-color="#D6EFFB"/>
<stop offset="1" stop-color="#87BBE4"/>
</radialGradient>
<radialGradient id="paint12_radial_1_344" cx="0" cy="0" r="1" gradientUnits="userSpaceOnUse" gradientTransform="translate(76.6009 126.103) scale(3.13641 3.25449)">
<stop stop-color="#FEFEFE"/>
<stop offset="1" stop-color="#FEFEFE" stop-opacity="0"/>
</radialGradient>
<radialGradient id="paint13_radial_1_344" cx="0" cy="0" r="1" gradientUnits="userSpaceOnUse" gradientTransform="translate(104.105 126.437) scale(14.717 15.271)">
<stop stop-color="#D0EDFA"/>
<stop offset="0.2" stop-color="#D6EFFB"/>
<stop offset="1" stop-color="#87BBE4"/>
</radialGradient>
<radialGradient id="paint14_radial_1_344" cx="0" cy="0" r="1" gradientUnits="userSpaceOnUse" gradientTransform="translate(104.266 126.103) scale(3.13641 3.25449)">
<stop stop-color="#FEFEFE"/>
<stop offset="1" stop-color="#FEFEFE" stop-opacity="0"/>
</radialGradient>
</defs>
</svg>
