<svg width="53" height="38" viewBox="0 0 53 38" fill="none" xmlns="http://www.w3.org/2000/svg">
<rect width="53" height="38" fill="#1E1E1E"/>
<path d="M52.5682 25.7989C52.5682 32.163 47.4312 37.3 41.0956 37.3H11.5011C5.13696 37.3 0 32.163 0 25.7989C0 19.6631 4.85157 14.6403 10.9018 14.3549C11.4725 6.33558 18.122 0 26.2841 0C34.4461 0 41.1242 6.33558 41.6664 14.3549C47.7451 14.6403 52.5682 19.6631 52.5682 25.7989Z" fill="url(#paint0_radial_1_344)"/>
<path style="mix-blend-mode:overlay" d="M26.2841 15.7818C21.9748 12.2716 20.291 6.93487 22.517 3.85269C24.7715 0.741983 30.0797 1.11298 34.4176 4.5947C38.7269 8.10495 40.4107 13.4702 38.1847 16.5524C35.9301 19.6346 30.622 19.2636 26.2841 15.7818V15.7818Z" fill="url(#paint1_radial_1_344)"/>
<path style="mix-blend-mode:overlay" opacity="0.4" d="M41.752 26.1413C38.3559 23.3731 37.0146 19.1779 38.784 16.7521C40.5534 14.3264 44.72 14.6117 48.1447 17.38C51.5408 20.1197 52.8535 24.3149 51.0841 26.7407C49.3433 29.1664 45.1481 28.8811 41.752 26.1413V26.1413Z" fill="url(#paint2_radial_1_344)"/>
<path style="mix-blend-mode:overlay" opacity="0.2" d="M10.7876 36.4724C9.70314 38.0706 6.7922 36.187 4.2808 32.2772C1.7694 28.3674 0.627854 23.8869 1.71232 22.3172C2.79679 20.7191 5.70774 22.6026 8.21913 26.5124C10.7305 30.4222 11.8721 34.9028 10.7876 36.4724Z" fill="url(#paint3_radial_1_344)"/>
<defs>
<radialGradient id="paint0_radial_1_344" cx="0" cy="0" r="1" gradientUnits="userSpaceOnUse" gradientTransform="translate(32.9336 7.84812) scale(40.0968)">
<stop stop-color="#FEFEFE"/>
<stop offset="0.2" stop-color="#D6EFFB"/>
<stop offset="1" stop-color="#87BBE4"/>
</radialGradient>
<radialGradient id="paint1_radial_1_344" cx="0" cy="0" r="1" gradientUnits="userSpaceOnUse" gradientTransform="translate(30.3651 10.1883) scale(6.19288 6.19288)">
<stop stop-color="#FEFEFE"/>
<stop offset="1" stop-color="#FEFEFE" stop-opacity="0"/>
</radialGradient>
<radialGradient id="paint2_radial_1_344" cx="0" cy="0" r="1" gradientUnits="userSpaceOnUse" gradientTransform="translate(44.9483 21.7464) scale(4.85157)">
<stop stop-color="#FEFEFE"/>
<stop offset="1" stop-color="#FEFEFE" stop-opacity="0"/>
</radialGradient>
<radialGradient id="paint3_radial_1_344" cx="0" cy="0" r="1" gradientUnits="userSpaceOnUse" gradientTransform="translate(6.24997 29.3948) scale(2.45432 2.45432)">
<stop stop-color="#FEFEFE"/>
<stop offset="1" stop-color="#FEFEFE" stop-opacity="0"/>
</radialGradient>
</defs>
</svg>
