<svg width="186" height="188" viewBox="0 0 186 188" fill="none" xmlns="http://www.w3.org/2000/svg">
<path d="M114.7 150.3C114.7 152.2 114 154 113 155.4L90.1 186.9C89.4 187.9 88 188.2 87 187.4C86.2 186.9 85.9 185.9 86.1 185.1L91.8 161.1H81.2001C75.8001 161.1 71.5 156.7 71.5 151.4C71.5 150.733 71.5667 150.067 71.7001 149.4L72 148L81.6 102.9C83.4 94.2 91.9 88.6 100.6 90.5C109.3 92.3 114.8 100.9 113 109.5C112.7 110.9 112.2 112.3 111.6 113.5L97.2001 141.5H104.1H105.9C110.7 141.5 114.7 145.4 114.7 150.3V150.3Z" fill="url(#paint0_linear_1_344)"/>
<path d="M185.2 90.9C185.2 113.1 167.1 131.1 144.9 131.1H41.2001C19.0001 131.1 0.900024 113.1 0.900024 90.9C0.900024 69.3 17.9001 51.7 39.2001 50.7C41.1001 22.6 64.5 0.400024 93.1 0.400024C121.6 0.400024 145 22.6 146.9 50.7C168.2 51.7 185.2 69.3 185.2 90.9Z" fill="url(#paint1_radial_1_344)"/>
<path style="mix-blend-mode:overlay" opacity="0.6" d="M96.8 55.7C81.7 43.4 75.8 24.7 83.6 13.9C91.5 3.10003 110.1 4.30005 125.3 16.6C140.4 28.9 146.4 47.6 138.5 58.4C130.6 69.2 112 68 96.8 55.7Z" fill="url(#paint2_radial_1_344)"/>
<path style="mix-blend-mode:overlay" opacity="0.4" d="M147.2 92C135.3 82.4 130.7 67.7 136.8 59.2C143 50.7 157.7 51.6 169.6 61.3C181.5 70.9 186.1 85.7 180 94.1C173.8 102.6 159.1 101.7 147.2 92Z" fill="url(#paint3_radial_1_344)"/>
<path style="mix-blend-mode:overlay" opacity="0.2" d="M38.7001 128.3C34.9001 133.8 24.7 127.2 15.9 113.5C7.10003 99.8 3.10003 84.2 6.90003 78.6C10.7 73.1 20.9001 79.7 29.7001 93.4C38.5001 107.1 42.5001 122.7 38.7001 128.3Z" fill="url(#paint4_radial_1_344)"/>
<path d="M46.8001 157.3C44.5001 161.2 39.5 162.6 35.6 160.3C31.6 158.1 30.3 153 32.6 149.1C34.8 145.2 48.9001 137.3 48.9001 137.3C48.9001 137.3 49.1001 153.4 46.8001 157.3Z" fill="url(#paint5_radial_1_344)"/>
<path style="mix-blend-mode:overlay" d="M32.8001 155.9C31.5001 152.6 32.3 149.1 34.5 148.1C36.8 147.1 39.6001 149 40.9001 152.4C42.1001 155.7 41.4 159.2 39.1 160.2C36.9 161.2 34.1001 159.3 32.8001 155.9V155.9Z" fill="url(#paint6_radial_1_344)"/>
<path d="M60.1 181.4C57.8 185.3 52.8001 186.7 48.8001 184.4C44.9001 182.1 43.5001 177.1 45.8001 173.2C48.1001 169.2 62.1 161.4 62.1 161.4C62.1 161.4 62.3 177.5 60.1 181.4Z" fill="url(#paint7_radial_1_344)"/>
<path style="mix-blend-mode:overlay" d="M46 180C44.8 176.7 45.5 173.2 47.8 172.2C50 171.2 52.9 173.1 54.1 176.4C55.4 179.8 54.6 183.3 52.4 184.3C50.2 185.3 47.3 183.4 46 180V180Z" fill="url(#paint8_radial_1_344)"/>
<path d="M152.8 157.3C150.6 161.2 145.5 162.6 141.6 160.3C137.7 158.1 136.3 153 138.6 149.1C140.9 145.2 154.9 137.3 154.9 137.3C154.9 137.3 155.1 153.4 152.8 157.3Z" fill="url(#paint9_radial_1_344)"/>
<path style="mix-blend-mode:overlay" d="M138.8 155.9C137.6 152.6 138.3 149.1 140.6 148.1C142.8 147.1 145.6 149 146.9 152.4C148.2 155.7 147.4 159.2 145.2 160.2C143 161.2 140.1 159.3 138.8 155.9V155.9Z" fill="url(#paint10_radial_1_344)"/>
<path d="M130 181.4C127.7 185.3 122.7 186.7 118.8 184.4C114.8 182.1 113.5 177.1 115.8 173.2C118 169.2 132.1 161.4 132.1 161.4C132.1 161.4 132.3 177.5 130 181.4Z" fill="url(#paint11_radial_1_344)"/>
<path style="mix-blend-mode:overlay" d="M116 180C114.7 176.7 115.5 173.2 117.7 172.2C120 171.2 122.8 173.1 124.1 176.4C125.4 179.8 124.6 183.3 122.4 184.3C120.1 185.3 117.3 183.4 116 180V180Z" fill="url(#paint12_radial_1_344)"/>
<defs>
<linearGradient id="paint0_linear_1_344" x1="52.9" y1="177.7" x2="75.4999" y2="106.5" gradientUnits="userSpaceOnUse">
<stop offset="0.2" stop-color="#FBE12E"/>
<stop offset="1" stop-color="#F37421"/>
</linearGradient>
<radialGradient id="paint1_radial_1_344" cx="0" cy="0" r="1" gradientUnits="userSpaceOnUse" gradientTransform="translate(116.3 27.9) scale(140.5 140.5)">
<stop stop-color="#B4CCD3"/>
<stop offset="0.2" stop-color="#95B6BE"/>
<stop offset="1" stop-color="#5487B5"/>
</radialGradient>
<radialGradient id="paint2_radial_1_344" cx="0" cy="0" r="1" gradientUnits="userSpaceOnUse" gradientTransform="translate(111.1 36.1) scale(21.7 21.7)">
<stop stop-color="#FEFEFE"/>
<stop offset="1" stop-color="#FEFEFE" stop-opacity="0"/>
</radialGradient>
<radialGradient id="paint3_radial_1_344" cx="0" cy="0" r="1" gradientUnits="userSpaceOnUse" gradientTransform="translate(158.4 76.7) scale(17 17)">
<stop stop-color="#FEFEFE"/>
<stop offset="1" stop-color="#FEFEFE" stop-opacity="0"/>
</radialGradient>
<radialGradient id="paint4_radial_1_344" cx="0" cy="0" r="1" gradientUnits="userSpaceOnUse" gradientTransform="translate(22.8001 103.4) scale(8.60001 8.6)">
<stop stop-color="#FEFEFE"/>
<stop offset="1" stop-color="#FEFEFE" stop-opacity="0"/>
</radialGradient>
<radialGradient id="paint5_radial_1_344" cx="0" cy="0" r="1" gradientUnits="userSpaceOnUse" gradientTransform="translate(36.6 154.6) scale(18.3001 18.3)">
<stop stop-color="#D0EDFA"/>
<stop offset="0.2" stop-color="#D6EFFB"/>
<stop offset="1" stop-color="#87BBE4"/>
</radialGradient>
<radialGradient id="paint6_radial_1_344" cx="0" cy="0" r="1" gradientUnits="userSpaceOnUse" gradientTransform="translate(36.8001 154.2) scale(3.89999 3.89999)">
<stop stop-color="#FEFEFE"/>
<stop offset="1" stop-color="#FEFEFE" stop-opacity="0"/>
</radialGradient>
<radialGradient id="paint7_radial_1_344" cx="0" cy="0" r="1" gradientUnits="userSpaceOnUse" gradientTransform="translate(49.8001 178.7) scale(18.3999 18.4)">
<stop stop-color="#D0EDFA"/>
<stop offset="0.2" stop-color="#D6EFFB"/>
<stop offset="1" stop-color="#87BBE4"/>
</radialGradient>
<radialGradient id="paint8_radial_1_344" cx="0" cy="0" r="1" gradientUnits="userSpaceOnUse" gradientTransform="translate(50.1 178.2) scale(3.89999 3.9)">
<stop stop-color="#FEFEFE"/>
<stop offset="1" stop-color="#FEFEFE" stop-opacity="0"/>
</radialGradient>
<radialGradient id="paint9_radial_1_344" cx="0" cy="0" r="1" gradientUnits="userSpaceOnUse" gradientTransform="translate(142.6 154.6) scale(18.3001 18.3)">
<stop stop-color="#D0EDFA"/>
<stop offset="0.2" stop-color="#D6EFFB"/>
<stop offset="1" stop-color="#87BBE4"/>
</radialGradient>
<radialGradient id="paint10_radial_1_344" cx="0" cy="0" r="1" gradientUnits="userSpaceOnUse" gradientTransform="translate(142.9 154.2) scale(3.9 3.89999)">
<stop stop-color="#FEFEFE"/>
<stop offset="1" stop-color="#FEFEFE" stop-opacity="0"/>
</radialGradient>
<radialGradient id="paint11_radial_1_344" cx="0" cy="0" r="1" gradientUnits="userSpaceOnUse" gradientTransform="translate(119.8 178.7) scale(18.2999 18.3)">
<stop stop-color="#D0EDFA"/>
<stop offset="0.2" stop-color="#D6EFFB"/>
<stop offset="1" stop-color="#87BBE4"/>
</radialGradient>
<radialGradient id="paint12_radial_1_344" cx="0" cy="0" r="1" gradientUnits="userSpaceOnUse" gradientTransform="translate(120 178.2) scale(3.89999 3.9)">
<stop stop-color="#FEFEFE"/>
<stop offset="1" stop-color="#FEFEFE" stop-opacity="0"/>
</radialGradient>
</defs>
</svg>
