<svg width="214" height="189" viewBox="0 0 214 189" fill="none" xmlns="http://www.w3.org/2000/svg">
<path d="M199.5 105.1L185.3 106L182.6 120L169 116L161.7 128.2L150.2 119.8L139.1 128.8L131.2 117L117.8 121.6L114.4 107.8L100.1 107.6L101.7 93.4L88.4 88.4L94.7 75.6L83.9 66.3L94.2 56.4L87.3 44L100.3 38.3L98 24.2L112.2 23.3L114.9 9.29999L128.6 13.3L135.9 1L147.4 9.5L158.4 0.5L166.3 12.3L179.8 7.60001L183.2 21.5L197.4 21.7L195.8 35.8L209.1 40.9L202.9 53.7L213.6 63L203.3 72.8L210.3 85.3L197.2 91L199.5 105.1Z" fill="url(#paint0_linear_1_344)"/>
<path d="M148.8 16.6C175.3 16.6 196.8 38.1 196.8 64.6C196.8 91.2 175.3 112.7 148.8 112.7C122.2 112.7 100.7 91.2 100.7 64.6C100.7 38.1 122.2 16.6 148.8 16.6Z" fill="url(#paint1_radial_1_344)"/>
<path style="mix-blend-mode:overlay" d="M156.1 59.7C143.9 49.8 139.1 34.7001 145.4 25.9001C151.8 17.2001 166.8 18.2001 179.1 28.1001C191.3 38.0001 196.1 53.2001 189.7 61.9001C183.4 70.6001 168.3 69.6 156.1 59.7Z" fill="url(#paint2_radial_1_344)"/>
<path style="mix-blend-mode:overlay" opacity="0.4" d="M106.3 75.3001C107.9 69.9001 116.2 72.1 124.7 80.2C133.3 88.2 138.9 99.0001 137.3 104.3C135.6 109.6 127.4 107.4 118.9 99.4C110.3 91.4 104.7 80.6001 106.3 75.3001Z" fill="url(#paint3_radial_1_344)"/>
<path d="M184.2 119.4C184.2 141.6 166.2 159.6 143.9 159.6H40.2C18 159.6 0 141.6 0 119.4C0 97.8 16.9 80.2 38.2 79.2C40.1 51.1 63.5 28.9 92.1 28.9C120.7 28.9 144 51.1 146 79.2C167.2 80.2 184.2 97.8 184.2 119.4Z" fill="url(#paint4_radial_1_344)"/>
<path d="M184.2 119.4C184.2 141.6 166.2 159.6 143.9 159.6H40.2C18 159.6 0 141.6 0 119.4C0 97.8 16.9 80.2 38.2 79.2C40.1 51.1 63.5 28.9 92.1 28.9C120.7 28.9 144 51.1 146 79.2C167.2 80.2 184.2 97.8 184.2 119.4Z" fill="url(#paint5_radial_1_344)"/>
<path style="mix-blend-mode:overlay" d="M92.1 84.2C76.9 71.9 71 53.2 78.9 42.4C86.7 31.6 105.4 32.8 120.5 45.1C135.7 57.4 141.6 76.1 133.7 86.9C125.9 97.7 107.2 96.5 92.1 84.2Z" fill="url(#paint6_radial_1_344)"/>
<path style="mix-blend-mode:overlay" opacity="0.4" d="M146.2 120.5C134.3 110.9 129.7 96.1 135.9 87.7C142 79.2 156.7 80.1001 168.6 89.8001C180.5 99.4001 185.2 114.2 179 122.6C172.8 131.1 158.1 130.2 146.2 120.5V120.5Z" fill="url(#paint7_radial_1_344)"/>
<path style="mix-blend-mode:overlay" opacity="0.2" d="M37.7 156.8C33.9 162.3 23.7 155.7 14.9 142C6.1 128.3 2.1 112.7 5.9 107.1C9.8 101.6 20 108.2 28.7 121.9C37.5 135.6 41.6 151.2 37.7 156.8Z" fill="url(#paint8_radial_1_344)"/>
<path d="M47.1 184.4C44.9 188.3 39.8 189.6 35.9 187.4C32 185.1 30.6 180.1 32.9 176.1C35.2 172.2 49.2 164.3 49.2 164.3C49.2 164.3 49.4 180.4 47.1 184.4V184.4Z" fill="url(#paint9_radial_1_344)"/>
<path style="mix-blend-mode:overlay" d="M33.1 183C31.9 179.7 32.6 176.2 34.9 175.2C37.1 174.2 39.9 176.1 41.2 179.4C42.5 182.7 41.7 186.2 39.5 187.2C37.2 188.2 34.4 186.3 33.1 183V183Z" fill="url(#paint10_radial_1_344)"/>
<path d="M81.5 184.4C79.2 188.3 74.2 189.6 70.3 187.4C66.4 185.1 65 180.1 67.3 176.1C69.5 172.2 83.6 164.3 83.6 164.3C83.6 164.3 83.8 180.4 81.5 184.4V184.4Z" fill="url(#paint11_radial_1_344)"/>
<path style="mix-blend-mode:overlay" d="M67.5 183C66.2 179.7 67 176.2 69.2 175.2C71.5 174.2 74.3 176.1 75.6 179.4C76.9 182.7 76.1 186.2 73.9 187.2C71.6 188.2 68.8 186.3 67.5 183Z" fill="url(#paint12_radial_1_344)"/>
<path d="M115.9 184.4C113.6 188.3 108.6 189.6 104.7 187.4C100.7 185.1 99.4 180.1 101.7 176.1C103.9 172.2 118 164.3 118 164.3C118 164.3 118.2 180.4 115.9 184.4V184.4Z" fill="url(#paint13_radial_1_344)"/>
<path style="mix-blend-mode:overlay" d="M101.9 183C100.6 179.7 101.4 176.2 103.6 175.2C105.9 174.2 108.7 176.1 110 179.4C111.3 182.7 110.5 186.2 108.3 187.2C106 188.2 103.2 186.3 101.9 183Z" fill="url(#paint14_radial_1_344)"/>
<path d="M150.3 184.4C148 188.3 143 189.6 139.1 187.4C135.1 185.1 133.8 180.1 136 176.1C138.3 172.2 152.4 164.3 152.4 164.3C152.4 164.3 152.6 180.4 150.3 184.4V184.4Z" fill="url(#paint15_radial_1_344)"/>
<path style="mix-blend-mode:overlay" d="M136.3 183C135 179.7 135.8 176.2 138 175.2C140.3 174.2 143.1 176.1 144.4 179.4C145.6 182.7 144.9 186.2 142.6 187.2C140.4 188.2 137.6 186.3 136.3 183V183Z" fill="url(#paint16_radial_1_344)"/>
<defs>
<linearGradient id="paint0_linear_1_344" x1="259.2" y1="44.4" x2="145.2" y2="171.8" gradientUnits="userSpaceOnUse">
<stop stop-color="#FCB81F"/>
<stop offset="1" stop-color="#F05322"/>
</linearGradient>
<radialGradient id="paint1_radial_1_344" cx="0" cy="0" r="1" gradientUnits="userSpaceOnUse" gradientTransform="translate(159.8 34.5) scale(91.2 91.2)">
<stop stop-color="#FDF5C3"/>
<stop offset="0.2" stop-color="#FBE12E"/>
<stop offset="1" stop-color="#F37421"/>
</radialGradient>
<radialGradient id="paint2_radial_1_344" cx="0" cy="0" r="1" gradientUnits="userSpaceOnUse" gradientTransform="translate(167.6 43.9001) scale(17.5 17.5)">
<stop stop-color="#FEFEFE"/>
<stop offset="1" stop-color="#FEFEFE" stop-opacity="0"/>
</radialGradient>
<radialGradient id="paint3_radial_1_344" cx="0" cy="0" r="1" gradientUnits="userSpaceOnUse" gradientTransform="translate(121.8 89.8) scale(19.6 19.6)">
<stop stop-color="#FEFEFE"/>
<stop offset="1" stop-color="#FEFEFE" stop-opacity="0"/>
</radialGradient>
<radialGradient id="paint4_radial_1_344" cx="0" cy="0" r="1" gradientUnits="userSpaceOnUse" gradientTransform="translate(115.3 56.4) scale(140.5 140.5)">
<stop stop-color="#FEFEFE"/>
<stop offset="0.2" stop-color="#D6EFFB"/>
<stop offset="1" stop-color="#87BBE4"/>
</radialGradient>
<radialGradient id="paint5_radial_1_344" cx="0" cy="0" r="1" gradientUnits="userSpaceOnUse" gradientTransform="translate(133.4 64.4) scale(123.4 123.4)">
<stop stop-color="#FBE12E"/>
<stop offset="0.8" stop-color="#F37421" stop-opacity="0"/>
</radialGradient>
<radialGradient id="paint6_radial_1_344" cx="0" cy="0" r="1" gradientUnits="userSpaceOnUse" gradientTransform="translate(106.3 64.6) scale(21.7 21.7)">
<stop stop-color="#FEFEFE"/>
<stop offset="1" stop-color="#FEFEFE" stop-opacity="0"/>
</radialGradient>
<radialGradient id="paint7_radial_1_344" cx="0" cy="0" r="1" gradientUnits="userSpaceOnUse" gradientTransform="translate(157.4 105.1) scale(17 17)">
<stop stop-color="#FEFEFE"/>
<stop offset="1" stop-color="#FEFEFE" stop-opacity="0"/>
</radialGradient>
<radialGradient id="paint8_radial_1_344" cx="0" cy="0" r="1" gradientUnits="userSpaceOnUse" gradientTransform="translate(21.8 131.9) scale(8.6)">
<stop stop-color="#FEFEFE"/>
<stop offset="1" stop-color="#FEFEFE" stop-opacity="0"/>
</radialGradient>
<radialGradient id="paint9_radial_1_344" cx="0" cy="0" r="1" gradientUnits="userSpaceOnUse" gradientTransform="translate(36.9 181.6) scale(18.3 18.3)">
<stop stop-color="#D0EDFA"/>
<stop offset="0.2" stop-color="#D6EFFB"/>
<stop offset="1" stop-color="#87BBE4"/>
</radialGradient>
<radialGradient id="paint10_radial_1_344" cx="0" cy="0" r="1" gradientUnits="userSpaceOnUse" gradientTransform="translate(37.2 181.2) scale(3.9 3.9)">
<stop stop-color="#FEFEFE"/>
<stop offset="1" stop-color="#FEFEFE" stop-opacity="0"/>
</radialGradient>
<radialGradient id="paint11_radial_1_344" cx="0" cy="0" r="1" gradientUnits="userSpaceOnUse" gradientTransform="translate(71.3 181.6) scale(18.3 18.3)">
<stop stop-color="#D0EDFA"/>
<stop offset="0.2" stop-color="#D6EFFB"/>
<stop offset="1" stop-color="#87BBE4"/>
</radialGradient>
<radialGradient id="paint12_radial_1_344" cx="0" cy="0" r="1" gradientUnits="userSpaceOnUse" gradientTransform="translate(71.6 181.2) scale(3.9 3.9)">
<stop stop-color="#FEFEFE"/>
<stop offset="1" stop-color="#FEFEFE" stop-opacity="0"/>
</radialGradient>
<radialGradient id="paint13_radial_1_344" cx="0" cy="0" r="1" gradientUnits="userSpaceOnUse" gradientTransform="translate(105.7 181.6) scale(18.3 18.3)">
<stop stop-color="#D0EDFA"/>
<stop offset="0.2" stop-color="#D6EFFB"/>
<stop offset="1" stop-color="#87BBE4"/>
</radialGradient>
<radialGradient id="paint14_radial_1_344" cx="0" cy="0" r="1" gradientUnits="userSpaceOnUse" gradientTransform="translate(105.9 181.2) scale(3.9 3.9)">
<stop stop-color="#FEFEFE"/>
<stop offset="1" stop-color="#FEFEFE" stop-opacity="0"/>
</radialGradient>
<radialGradient id="paint15_radial_1_344" cx="0" cy="0" r="1" gradientUnits="userSpaceOnUse" gradientTransform="translate(140.1 181.6) scale(18.3 18.3)">
<stop stop-color="#D0EDFA"/>
<stop offset="0.2" stop-color="#D6EFFB"/>
<stop offset="1" stop-color="#87BBE4"/>
</radialGradient>
<radialGradient id="paint16_radial_1_344" cx="0" cy="0" r="1" gradientUnits="userSpaceOnUse" gradientTransform="translate(140.3 181.2) scale(3.9 3.9)">
<stop stop-color="#FEFEFE"/>
<stop offset="1" stop-color="#FEFEFE" stop-opacity="0"/>
</radialGradient>
</defs>
</svg>
